<?xml version="1.0" encoding="utf-8"?>
<!-- Generator: Adobe Illustrator 19.0.0, SVG Export Plug-In . SVG Version: 6.00 Build 0)  -->
<svg version="1.1" xmlns="http://www.w3.org/2000/svg" xmlns:xlink="http://www.w3.org/1999/xlink" x="0px" y="0px"
	 viewBox="-149 364.7 312 61.5" style="enable-background:new -149 364.7 312 61.5;" xml:space="preserve">
<style type="text/css">
	.st0{display:none;}
	.st1{display:inline;}
	.st2{fill:#F8B238;}
	.st3{fill:#FFFFFF;}
	.st4{fill:#369AD5;}
	.st5{fill:#231F20;}
	.st6{fill:none;}
</style>
<g id="Layer_1" class="st0">
	<title>SPBeta_Logo</title>
	<g id="Layer_2" class="st1">
		<g id="Layer_1-2">
			<g id="Icon">
				<path id="Path_160" class="st2" d="M-145.5,388.5c2.7-0.8,5.5-0.8,8.2,0l0.3-1.2c-2.9-0.9-6-0.9-8.9,0L-145.5,388.5z"/>
				<path id="Path_161" class="st2" d="M-145.8,391.7l0.3,1.2c2.7-0.8,5.5-0.8,8.2,0l0.4-1.2C-139.8,390.9-142.9,390.9-145.8,391.7z
					"/>
				<path id="Path_162" class="st2" d="M-145.8,396.1l0.3,1.2c2.7-0.8,5.5-0.8,8.2,0l0.4-1.2C-139.8,395.2-142.9,395.2-145.8,396.1z
					"/>
				<path id="Path_163" class="st2" d="M-145.9,400.4l0.4,1.2c2.7-0.8,5.5-0.8,8.2,0l0.3-1.2C-139.9,399.6-143,399.6-145.9,400.4z"
					/>
				<path id="Path_164" class="st2" d="M-132.1,387.3l0.4,1.2c2.7-0.8,5.5-0.8,8.2,0l0.3-1.2C-126.1,386.4-129.2,386.4-132.1,387.3z
					"/>
				<path id="Path_165" class="st2" d="M-132.1,391.7l0.3,1.2c2.7-0.8,5.5-0.8,8.2,0l0.3-1.2C-126.2,390.8-129.2,390.8-132.1,391.7z
					"/>
				<path id="Path_166" class="st2" d="M-132.1,396l0.4,1.2c2.7-0.8,5.5-0.8,8.2,0l0.3-1.2C-126.1,395.1-129.2,395.1-132.1,396z"/>
				<path id="Path_167" class="st2" d="M-120.6,383.9c-2.3-0.9-4.7-1.4-7.1-1.5c-2.4,0.1-4.7,0.5-6.9,1.4c-2.2-0.9-4.5-1.3-6.9-1.4
					c-2.4,0-4.9,0.6-7.1,1.5c-0.2,0.1-0.4,0.3-0.4,0.6v21.8c0,0.6,0.6,0.6,0.8,0.6c2.1-0.9,4.4-1.4,6.7-1.4c2.3,0.1,4.6,0.5,6.7,1.4
					h0.4c0.9-0.3,1.7-0.6,2.6-0.9c0.2,0.3,0.4,0.6,0.7,0.8c1.6,1.6,4.2,1.8,6,0.4l3.8,3.8l0.9-0.9l-3.8-3.8c0.1-0.2,0.2-0.3,0.3-0.5
					l3,1c0.3,0.1,0.6,0,0.8-0.3c0-0.1,0.1-0.2,0-0.3v-21.8C-120.2,384.2-120.3,383.9-120.6,383.9z M-135.2,405.4
					c-2-0.8-4.1-1.2-6.3-1.2c-2.1,0.1-4.3,0.5-6.3,1.2v-20.5c4-1.7,8.6-1.7,12.6,0V405.4z M-130.2,405.9c-1.3-1.3-1.3-3.5,0-4.8
					s3.5-1.3,4.8,0c1.3,1.3,1.3,3.5,0,4.8C-126.7,407.2-128.9,407.2-130.2,405.9z M-121.4,405.4c-0.5-0.2-1.4-0.4-2.1-0.6
					c0.4-1.6,0-3.3-1.2-4.5c-1.8-1.8-4.7-1.8-6.5,0c0,0,0,0,0,0c-1.2,1.2-1.7,3-1.1,4.6c-0.5,0.2-1.3,0.4-1.8,0.6V385
					c2-0.8,4.2-1.3,6.4-1.3c2.1,0.1,4.2,0.5,6.2,1.3L-121.4,405.4L-121.4,405.4z"/>
			</g>
			<g>
				<path class="st3" d="M-78.8,391.5c0,0.1-0.1,0.1-0.2,0.1c-0.1,0-0.2,0-0.3-0.1c-0.1-0.1-0.3-0.2-0.4-0.3
					c-0.2-0.1-0.5-0.2-0.7-0.3c-0.3-0.1-0.7-0.2-1-0.2c-0.4,0-0.7,0.1-1.1,0.2c-0.3,0.1-0.6,0.3-0.8,0.5c-0.2,0.2-0.4,0.4-0.5,0.7
					c-0.1,0.3-0.2,0.5-0.2,0.8c0,0.3,0.1,0.7,0.2,1c0.1,0.2,0.4,0.5,0.6,0.6c0.3,0.2,0.6,0.3,0.9,0.4c0.3,0.1,0.7,0.2,1,0.4
					c0.4,0.1,0.7,0.2,1,0.4c0.3,0.2,0.6,0.3,0.9,0.5c0.3,0.2,0.5,0.5,0.6,0.8c0.2,0.4,0.2,0.8,0.2,1.2c0,0.4-0.1,0.9-0.2,1.3
					c-0.3,0.8-1,1.5-1.8,1.8c-0.5,0.2-1,0.3-1.5,0.3c-0.7,0-1.3-0.1-1.9-0.4c-0.5-0.3-1-0.7-1.4-1.1l0.2-0.4
					c0.1-0.1,0.1-0.1,0.2-0.1c0.1,0,0.1,0,0.2,0.1c0.1,0.1,0.2,0.1,0.3,0.2c0.1,0.1,0.2,0.2,0.4,0.3c0.2,0.1,0.3,0.2,0.5,0.3
					c0.2,0.1,0.5,0.2,0.7,0.2c0.3,0.1,0.6,0.1,0.9,0.1c0.4,0,0.8-0.1,1.2-0.2c0.4-0.1,0.7-0.3,0.9-0.6c0.2-0.2,0.4-0.5,0.6-0.8
					c0.1-0.3,0.2-0.7,0.2-1c0-0.3-0.1-0.7-0.2-1c-0.1-0.2-0.4-0.5-0.6-0.6c-0.3-0.2-0.6-0.3-0.9-0.4l-1-0.3c-0.4-0.1-0.7-0.2-1-0.4
					c-0.3-0.1-0.6-0.3-0.9-0.5c-0.3-0.2-0.5-0.5-0.6-0.8c-0.2-0.4-0.2-0.8-0.2-1.2c0-0.4,0.1-0.7,0.2-1.1c0.1-0.3,0.3-0.7,0.6-0.9
					c0.3-0.3,0.6-0.5,1-0.6c0.4-0.2,0.9-0.2,1.4-0.2c0.5,0,1.1,0.1,1.6,0.3c0.5,0.2,0.9,0.5,1.3,0.9L-78.8,391.5z"/>
				<path class="st3" d="M-61.3,399.5c0.1,0,0.1,0,0.1,0.1l0.3,0.3c-0.2,0.3-0.5,0.5-0.8,0.7c-0.3,0.2-0.6,0.4-0.9,0.5
					c-0.3,0.2-0.7,0.3-1.1,0.3c-0.4,0.1-0.9,0.1-1.3,0.1c-0.8,0-1.5-0.1-2.2-0.4c-0.6-0.3-1.2-0.7-1.7-1.2c-0.5-0.5-0.9-1.1-1.2-1.8
					c-0.3-0.8-0.4-1.6-0.4-2.4c0-0.8,0.1-1.6,0.4-2.4c0.2-0.7,0.6-1.3,1.1-1.8c0.5-0.5,1.1-0.9,1.8-1.2c0.7-0.3,1.5-0.4,2.3-0.4
					c0.4,0,0.7,0,1.1,0.1c0.3,0.1,0.7,0.2,1,0.3c0.3,0.1,0.5,0.2,0.8,0.4c0.2,0.1,0.5,0.4,0.8,0.6l-0.2,0.4c0,0.1-0.1,0.1-0.2,0.1
					c-0.1,0-0.1,0-0.2-0.1c-0.1-0.1-0.2-0.1-0.3-0.2c-0.1-0.1-0.3-0.2-0.4-0.3l-0.6-0.3c-0.2-0.1-0.5-0.2-0.8-0.2
					c-0.3-0.1-0.7-0.1-1-0.1c-0.7,0-1.3,0.1-1.9,0.4c-0.6,0.3-1.1,0.6-1.5,1c-0.4,0.5-0.7,1-1,1.6c-0.2,0.7-0.3,1.4-0.3,2.1
					c0,0.7,0.1,1.4,0.3,2.1c0.2,0.6,0.5,1.2,1,1.6c0.4,0.4,0.9,0.7,1.4,1c0.6,0.2,1.2,0.3,1.8,0.3c0.4,0,0.7,0,1.1-0.1
					c0.3-0.1,0.6-0.1,0.9-0.2c0.3-0.1,0.5-0.2,0.7-0.4c0.2-0.2,0.5-0.3,0.7-0.5C-61.5,399.6-61.4,399.6-61.3,399.5
					C-61.3,399.5-61.3,399.5-61.3,399.5L-61.3,399.5z"/>
				<path class="st3" d="M-43.2,401.4H-44V396h-7.1v5.4h-0.8v-11.3h0.8v5.3h7.1v-5.3h0.8L-43.2,401.4z"/>
				<path class="st3" d="M-23.3,395.8c0,0.8-0.1,1.6-0.4,2.4c-0.2,0.7-0.6,1.3-1.1,1.8c-0.5,0.5-1.1,0.9-1.7,1.2
					c-1.4,0.5-3,0.5-4.4,0c-0.6-0.3-1.2-0.7-1.7-1.2c-0.5-0.5-0.9-1.1-1.1-1.8c-0.3-0.8-0.4-1.6-0.4-2.4c0-0.8,0.1-1.6,0.4-2.4
					c0.2-0.7,0.6-1.3,1.1-1.8c0.5-0.5,1.1-0.9,1.7-1.2c1.4-0.5,3-0.5,4.4,0c0.6,0.3,1.2,0.7,1.7,1.2c0.5,0.5,0.9,1.1,1.1,1.8
					C-23.4,394.2-23.2,395-23.3,395.8z M-24.2,395.8c0-0.7-0.1-1.4-0.3-2.1c-0.2-0.6-0.5-1.1-0.9-1.6c-0.4-0.4-0.9-0.8-1.4-1
					c-0.6-0.2-1.3-0.3-1.9-0.3c-0.6,0-1.2,0.1-1.8,0.3c-0.5,0.2-1,0.6-1.4,1c-0.4,0.5-0.7,1-0.9,1.6c-0.2,0.7-0.3,1.4-0.3,2.1
					c0,0.7,0.1,1.4,0.3,2.1c0.2,0.6,0.5,1.1,0.9,1.6c0.4,0.4,0.9,0.8,1.4,1c0.6,0.2,1.2,0.3,1.8,0.3c0.6,0,1.3-0.1,1.9-0.3
					c0.5-0.2,1-0.6,1.4-1c0.4-0.5,0.7-1,0.9-1.6C-24.2,397.2-24.1,396.5-24.2,395.8z"/>
				<path class="st3" d="M-4.1,395.8c0,0.8-0.1,1.6-0.4,2.4c-0.2,0.7-0.6,1.3-1.1,1.8c-0.5,0.5-1.1,0.9-1.7,1.2
					c-1.4,0.5-3,0.5-4.4,0c-0.6-0.3-1.2-0.7-1.7-1.2c-0.5-0.5-0.9-1.1-1.1-1.8c-0.3-0.8-0.4-1.6-0.4-2.4c0-0.8,0.1-1.6,0.4-2.4
					c0.2-0.7,0.6-1.3,1.1-1.8c0.5-0.5,1.1-0.9,1.7-1.2c1.4-0.5,3-0.5,4.4,0c0.6,0.3,1.2,0.7,1.7,1.2c0.5,0.5,0.9,1.1,1.1,1.8
					C-4.2,394.2-4,395-4.1,395.8z M-4.9,395.8c0-0.7-0.1-1.4-0.3-2.1c-0.2-0.6-0.5-1.1-0.9-1.6c-0.4-0.4-0.9-0.8-1.4-1
					c-0.6-0.2-1.3-0.3-1.9-0.3c-0.6,0-1.2,0.1-1.8,0.3c-0.5,0.2-1,0.6-1.4,1c-0.4,0.5-0.7,1-0.9,1.6c-0.2,0.7-0.3,1.4-0.3,2.1
					c0,0.7,0.1,1.4,0.3,2.1c0.2,0.6,0.5,1.1,0.9,1.6c0.4,0.4,0.9,0.8,1.4,1c0.6,0.2,1.2,0.3,1.8,0.3c0.6,0,1.3-0.1,1.9-0.3
					c0.5-0.2,1-0.6,1.4-1c0.4-0.5,0.7-1,0.9-1.6C-5.1,397.2-5,396.5-4.9,395.8L-4.9,395.8z"/>
				<path class="st3" d="M5.8,400.7h5.4v0.7H4.9v-11.3h0.8V400.7z"/>
			</g>
			<g>
				<path class="st3" d="M21.4,397.4v4H19v-11.6h3.9c0.7,0,1.4,0.1,2.1,0.3c0.5,0.1,1,0.4,1.4,0.8c0.3,0.4,0.6,0.8,0.8,1.2
					c0.2,0.5,0.3,1,0.3,1.5c0,0.5-0.1,1.1-0.3,1.6c-0.2,0.4-0.5,0.9-0.8,1.2c-0.4,0.3-0.9,0.6-1.4,0.8c-0.6,0.2-1.3,0.3-2,0.3
					L21.4,397.4L21.4,397.4z M21.4,395.6h1.5c0.6,0,1.2-0.1,1.7-0.5c0.4-0.4,0.6-1,0.5-1.5c0-0.3,0-0.5-0.1-0.8
					c-0.1-0.2-0.2-0.4-0.4-0.6c-0.2-0.2-0.4-0.3-0.7-0.4c-0.3-0.1-0.7-0.1-1-0.1h-1.5V395.6z"/>
				<path class="st3" d="M37.9,401.4h-2.4v-11.6h2.4V401.4z"/>
				<path class="st3" d="M54.6,398.6c0.1,0,0.2,0,0.3,0.1l1,1c-0.5,0.6-1,1.1-1.7,1.4c-0.8,0.3-1.6,0.5-2.5,0.5
					c-0.8,0-1.6-0.1-2.3-0.4c-0.7-0.3-1.3-0.7-1.8-1.2c-0.5-0.5-0.9-1.2-1.1-1.9c-0.3-0.8-0.4-1.6-0.4-2.4c0-0.5,0.1-1.1,0.2-1.6
					c0.1-0.5,0.3-1,0.5-1.4c0.2-0.4,0.5-0.9,0.9-1.2c0.3-0.4,0.7-0.7,1.1-0.9c0.4-0.2,0.9-0.4,1.4-0.6c0.5-0.2,1.1-0.2,1.6-0.2
					c0.4,0,0.8,0,1.2,0.1l1.1,0.3c0.3,0.1,0.6,0.3,0.9,0.5c0.3,0.2,0.5,0.4,0.8,0.6l-0.8,1.1c0,0.1-0.1,0.1-0.2,0.2
					c-0.1,0.1-0.2,0.1-0.3,0.1c-0.1,0-0.3,0-0.4-0.1c-0.2-0.1-0.3-0.2-0.5-0.3c-0.2-0.1-0.5-0.2-0.7-0.3c-0.4-0.1-0.7-0.1-1.1-0.1
					c-0.5,0-0.9,0.1-1.3,0.3c-0.4,0.1-0.8,0.4-1,0.8c-0.3,0.3-0.6,0.8-0.7,1.2c-0.2,0.5-0.2,1.1-0.2,1.7c0,0.6,0.1,1.2,0.3,1.7
					c0.1,0.4,0.4,0.9,0.7,1.2c0.3,0.3,0.7,0.6,1.1,0.8c0.4,0.2,0.8,0.3,1.3,0.3h0.7c0.2,0,0.4-0.1,0.6-0.1s0.4-0.1,0.5-0.2
					s0.3-0.2,0.5-0.4c0.1,0,0.1-0.1,0.2-0.1C54.6,398.6,54.6,398.6,54.6,398.6z"/>
				<path class="st3" d="M66.1,394.6h0.5c0.3,0,0.7-0.1,0.9-0.4l2.9-3.9c0.1-0.2,0.3-0.3,0.5-0.4c0.2-0.1,0.4-0.1,0.6-0.1h2.1
					l-3.7,4.8c-0.2,0.3-0.4,0.5-0.7,0.7c0.4,0.2,0.7,0.4,0.9,0.8l3.8,5.4h-2.5c-0.1,0-0.2-0.1-0.3-0.1s-0.1-0.1-0.2-0.1l-0.2-0.2
					l-3-4.2c-0.1-0.1-0.2-0.2-0.4-0.3c-0.1-0.1-0.3-0.1-0.6-0.1H66v5h-2.4v-11.6H66v4.7H66.1z"/>
				<path class="st3" d="M88.6,389.8v1.9h-5v3h3.9v1.8h-3.9v3h5v1.9h-7.4v-11.6H88.6z"/>
				<path class="st3" d="M99.3,397v4.4h-2.4v-11.6h3.6c0.7,0,1.4,0.1,2.1,0.3c0.5,0.2,1,0.4,1.4,0.7c0.4,0.3,0.6,0.7,0.8,1.1
					c0.2,0.4,0.3,0.9,0.3,1.4c0,0.4-0.1,0.7-0.2,1.1c-0.1,0.3-0.3,0.7-0.5,0.9c-0.2,0.3-0.5,0.6-0.8,0.8c-0.3,0.2-0.6,0.4-1,0.5
					c0.2,0.1,0.3,0.2,0.4,0.3l0.4,0.4l2.7,4.2h-2.2c-0.4,0-0.7-0.2-0.9-0.5l-2.2-3.6l-0.3-0.3c-0.1-0.1-0.3-0.1-0.5-0.1H99.3z
					 M99.3,395.3h1.2c0.3,0,0.7,0,1-0.1c0.3-0.1,0.5-0.2,0.7-0.4c0.2-0.2,0.3-0.4,0.4-0.6c0.1-0.3,0.1-0.5,0.1-0.8
					c0-0.5-0.2-0.9-0.5-1.3c-0.5-0.4-1.1-0.5-1.7-0.5h-1.2V395.3z"/>
			</g>
			<path class="st3" d="M127,396.3c-0.1-0.1-0.2-0.1-0.3-0.1h-1.5v1.6h1c0.2,0,0.3,0,0.5-0.1s0.2-0.1,0.3-0.2
				c0.1-0.1,0.1-0.1,0.1-0.2v-0.7C127.1,396.4,127.1,396.3,127,396.3z"/>
			<path class="st3" d="M126.8,395.1c0.2-0.1,0.2-0.3,0.2-0.6c0-0.2-0.1-0.4-0.2-0.6c-0.2-0.2-0.5-0.2-0.8-0.2h-0.9v1.6h0.8
				C126.2,395.4,126.5,395.3,126.8,395.1z"/>
			<path class="st3" d="M150.8,394.2c0-0.1-0.1-0.2-0.1-0.3c0,0.1-0.1,0.2-0.1,0.3c0,0.1-0.1,0.2-0.1,0.3l-0.7,1.8h1.7l-0.7-1.8
				C150.9,394.5,150.9,394.4,150.8,394.2C150.9,394.3,150.8,394.2,150.8,394.2z"/>
			<path class="st3" d="M157.1,389.8h-37.4c-3.3,0-5.9,2.6-5.9,5.9c0,3.3,2.6,5.9,5.9,5.9h37.4c3.2,0,5.8-2.7,5.9-5.9
				C162.9,392.5,160.4,389.9,157.1,389.8z M128,397.4c-0.1,0.2-0.2,0.3-0.3,0.4c-0.2,0.1-0.4,0.3-0.6,0.3c-0.3,0.1-0.5,0.1-0.8,0.1
				h-2v-5.4h1.9c0.3,0,0.6,0,0.9,0.1c0.2,0.1,0.5,0.1,0.6,0.3c0.1,0.1,0.3,0.3,0.3,0.5c0.1,0.2,0.1,0.4,0.1,0.6v0.3
				c0,0.1-0.1,0.2-0.2,0.3c-0.1,0.1-0.2,0.2-0.3,0.2s-0.2,0.1-0.5,0.2c0.6,0,1.1,0.5,1.1,1.2c0,0,0,0,0,0.1
				C128.1,397.1,128.1,397.3,128,397.4z M136.3,393.8h-2.4v1.5h1.9v0.8h-1.9v1.6h2.4v0.8h-3.4V393h3.4V393.8z M144.8,393.8h-1.7v4.6
				h-1v-4.6h-1.6V393h4.3L144.8,393.8L144.8,393.8z M152.6,398.4c-0.1,0-0.1,0-0.2-0.1l-0.1-0.1l-0.5-1.1h-2.3l-0.5,1.1
				c0,0.1,0,0.1-0.1,0.1c-0.1,0-0.1,0.1-0.2,0.1H148l2.1-5.4h1l2.1,5.4H152.6z"/>
		</g>
	</g>
</g>
<g id="Layer_2_2_">
	<g id="Layer_4">
		<circle id="XMLID_5_" class="st3" cx="-122.1" cy="396.9" r="24.8"/>
	</g>
	<g id="Layer_2_copy">
		<path id="XMLID_11_" class="st4" d="M-115.3,410.4c-0.4-1.6-1-3.7-2.2-6.1c-1.5-3-3.4-5.2-4.9-6.6c4.8,0,9.6,0,14.3,0
			c-1.5,1.5-3.3,3.6-4.9,6.6C-114.1,406.5-114.8,408.8-115.3,410.4z"/>
		<path id="XMLID_10_" class="st4" d="M-104.4,390.1c0,3-1.6,5.2-2.1,6c-0.4,0.7-3.4,4.8-8.5,4.8c-4.6,0-7.6-3.3-8.5-4.6
			c-0.6-0.7-2.2-3.1-2.2-6.1c0-4.8,4.3-10.8,10.8-10.8C-108.7,379.3-104.4,385.2-104.4,390.1z"/>
		<rect id="XMLID_9_" x="-121.3" y="388.3" class="st3" width="12.4" height="3.6"/>
		<rect id="XMLID_7_" x="-116.9" y="384" class="st3" width="3.6" height="12.4"/>
	</g>
	<g id="Layer_2_1_">
		<path id="XMLID_17_" class="st5" d="M-129.3,415.7c-0.4-1.6-1-3.7-2.2-6.1c-1.5-3-3.4-5.2-4.9-6.6c4.8,0,9.6,0,14.3,0
			c-1.5,1.5-3.3,3.6-4.9,6.6C-128.1,411.9-128.9,414-129.3,415.7z"/>
		<path id="XMLID_16_" class="st5" d="M-118.4,395.5c0,3-1.6,5.2-2.1,6c-0.4,0.7-3.4,4.8-8.5,4.8c-4.6,0-7.6-3.3-8.5-4.6
			c-0.6-0.7-2.2-3.1-2.2-6.1c0-4.8,4.3-10.8,10.8-10.8C-122.7,384.7-118.4,390.6-118.4,395.5z"/>
		<circle id="XMLID_15_" class="st3" cx="-129.2" cy="395" r="7.9"/>
		<rect id="XMLID_14_" x="-134.4" y="393.5" class="st4" width="10.5" height="3"/>
		<rect id="XMLID_13_" x="-130.8" y="389.8" class="st4" width="3" height="10.5"/>
	</g>
	<g>
		<rect x="-39.7" y="384.7" class="st6" width="176" height="22.1"/>
		<path class="st3" d="M-35.2,403.5c-2.1-2-3.1-5.4-3.1-8.2c0-2.7,0.9-5.5,3-7.7c1.5-1.6,4.1-2.9,7.3-2.9c2.6,0,4.8,1,5.9,1.6
			c0.4,0.2,0.5,0.2,0.6,0l0.2-0.8c0.1-0.2,0.1-0.2,0.4-0.2s0.3,0.1,0.3,0.5c0,0.6,0.6,4.8,0.7,5.6c0,0.1,0,0.3-0.1,0.3l-0.4,0.1
			c-0.1,0-0.2,0-0.3-0.2c-0.4-1-1-2.4-2.3-3.6c-1.2-1.3-2.8-2.2-5.1-2.2c-5.2,0-7.3,4.6-7.3,8.9c0,1.7,0.5,5,2.8,7.5
			c2,2.2,3.6,2.4,5.6,2.4c3.3,0,5.9-1.8,7.2-3.7c0.1-0.1,0.1-0.2,0.2-0.1l0.4,0.3c0.1,0.1,0.1,0.1,0.1,0.3c-1.7,2.5-4.6,4.9-8.7,4.9
			C-31.3,406.1-33.4,405.1-35.2,403.5z"/>
		<path class="st3" d="M-5.7,397c0,1.5,0,5.9,0,6.8c0,0.5,0.1,0.9,0.8,0.9h1.3c0.3,0,0.3,0.1,0.3,0.3v0.5c0,0.2-0.1,0.3-0.2,0.3
			c-0.2,0-1.5-0.1-3.3-0.1c-1.9,0-3,0.1-3.3,0.1c-0.1,0-0.2-0.1-0.2-0.3V405c0-0.2,0.1-0.3,0.4-0.3h1.4c0.3,0,0.6-0.2,0.6-0.7
			c0-0.9,0-5.9,0-7.6v-1.8c0-2.1,0-4.7-0.1-5.5c-0.1-1-0.5-1.5-1.5-1.7l-0.6-0.2c-0.1-0.1-0.2-0.1-0.2-0.1v-0.2
			c0-0.1,0.1-0.1,0.3-0.2c1-0.5,2.3-1,3.4-1.7c0.3-0.2,0.4-0.2,0.6-0.2c0.2,0,0.3,0.1,0.2,0.5c0,1.6-0.1,7.7-0.1,9.3V397z"/>
		<path class="st3" d="M7.2,397.2c0-1-0.2-1.5-1.6-1.7c-0.2,0-0.3-0.1-0.3-0.2V395c0-0.1,0.1-0.1,0.2-0.2c0.9-0.3,2-0.8,3.1-1.4
			c0.2-0.1,0.4-0.2,0.6-0.2c0.1,0,0.2,0.1,0.1,0.3c-0.1,0.5-0.1,2.3-0.1,4.7v3.2c0,1.1,0,2.2,0,2.5c0.1,0.6,0.1,0.8,0.5,0.8h1.3
			c0.2,0,0.3,0.1,0.3,0.3v0.5c0,0.2-0.1,0.3-0.3,0.3c-0.2,0-1.6-0.1-2.8-0.1c-1.7,0-2.8,0.1-3.1,0.1c-0.1,0-0.2-0.1-0.2-0.2V405
			c0-0.2,0.1-0.2,0.3-0.2h1.4c0.3,0,0.4-0.1,0.5-0.6c0-0.9,0-1.8,0-2.6V397.2z M5.9,388.4c0-0.7,0.6-1.5,1.8-1.5
			c1,0,1.5,0.8,1.5,1.4c0,0.8-0.5,1.6-1.7,1.6C6.9,389.9,5.9,389.3,5.9,388.4z"/>
		<path class="st3" d="M32.5,404.1c0,0.5,0.3,0.6,0.6,0.6H34c0.3,0,0.3,0.1,0.3,0.3v0.5c0,0.2-0.1,0.3-0.2,0.3
			c-0.2,0-1.1-0.1-2.8-0.1c-1.5,0-2.4,0.1-2.6,0.1c-0.2,0-0.2-0.1-0.2-0.3V405c0-0.2,0.1-0.3,0.4-0.3h0.8c0.3,0,0.6-0.1,0.6-0.7
			c0-0.8,0.1-1.7,0.1-2.4v-3.8c0-1.2,0-2-0.8-2.6c-0.7-0.5-1.4-0.5-2.1-0.5c-0.5,0-1.5,0.2-2.4,1.1c-0.6,0.6-0.7,1.4-0.7,2v6
			c0,0.8,0.1,1,0.7,1h0.7c0.2,0,0.3,0.1,0.3,0.3v0.5c0,0.2-0.1,0.3-0.2,0.3c-0.2,0-1-0.1-2.5-0.1c-1.5,0-2.4,0.1-2.6,0.1
			c-0.1,0-0.2-0.1-0.2-0.3V405c0-0.2,0.1-0.3,0.3-0.3h0.8c0.4,0,0.6-0.1,0.6-0.6v-6.8c0-0.9-0.5-1.4-1.2-1.7l-0.2-0.1
			c-0.2-0.1-0.2-0.2-0.2-0.3v-0.1c0-0.1,0.1-0.2,0.3-0.3l2.5-1.4c0.2-0.1,0.4-0.2,0.5-0.2c0.1,0,0.2,0.1,0.2,0.3l0.2,1.8h0.1
			c0.8-1,2.5-2.1,4-2.1c0.9,0,1.8,0.2,2.5,0.6c0.9,0.6,1.6,2,1.6,2.8V404.1z"/>
		<path class="st3" d="M45.3,397.2c0-1-0.2-1.5-1.6-1.7c-0.2,0-0.3-0.1-0.3-0.2V395c0-0.1,0.1-0.1,0.2-0.2c0.9-0.3,2-0.8,3.1-1.4
			c0.2-0.1,0.4-0.2,0.6-0.2c0.1,0,0.2,0.1,0.1,0.3c-0.1,0.5-0.1,2.3-0.1,4.7v3.2c0,1.1,0,2.2,0,2.5c0.1,0.6,0.1,0.8,0.5,0.8h1.3
			c0.2,0,0.3,0.1,0.3,0.3v0.5c0,0.2-0.1,0.3-0.3,0.3c-0.2,0-1.6-0.1-2.8-0.1c-1.7,0-2.8,0.1-3.1,0.1c-0.1,0-0.2-0.1-0.2-0.2V405
			c0-0.2,0.1-0.2,0.3-0.2h1.4c0.3,0,0.4-0.1,0.5-0.6c0-0.9,0-1.8,0-2.6V397.2z M44,388.4c0-0.7,0.6-1.5,1.8-1.5c1,0,1.5,0.8,1.5,1.4
			c0,0.8-0.5,1.6-1.7,1.6C44.9,389.9,44,389.3,44,388.4z"/>
		<path class="st3" d="M60.7,398.7c0,1.6,0.7,3.3,1.5,4.4c1,1.3,2.2,1.5,3.2,1.5c1.5,0,2.2-0.3,3.2-1.3c0.1-0.1,0.1-0.1,0.2,0
			l0.3,0.3c0.1,0.1,0.1,0.2,0,0.4c-0.8,1-2.7,2.1-4.7,2.1c-1.5,0-3.2-0.3-4.5-2c-1.1-1.4-1.3-2.6-1.3-4c0-3.4,2.4-6.8,6.2-6.8
			c3,0,4,1.7,4,2.4c0,0.7-0.5,1-1.1,1c-0.7,0-1.2-0.4-1.6-1.2c-0.6-1.2-1.3-1.3-2-1.3C62.5,394.1,60.7,395.7,60.7,398.7z"/>
		<path class="st3" d="M83.2,397.6c-0.3,0.7-1.9,5.2-2,5.8c0,0.2-0.1,0.5-0.1,0.6c0,0.4,0.3,0.6,1,0.6h1.4c0.2,0,0.3,0.1,0.3,0.2
			v0.7c0,0.2-0.1,0.3-0.2,0.3c-0.4,0-1.6-0.1-3.3-0.1c-2.1,0-2.8,0.1-3.2,0.1c-0.1,0-0.2-0.1-0.2-0.2v-0.7c0-0.1,0.1-0.2,0.2-0.2h1
			c0.9,0,1.3-0.4,1.7-1.3c0.2-0.5,2.3-5.9,3.2-8.2c0.2-0.6,2.6-6.8,2.8-7.6c0.1-0.3,0.2-0.7,0-1c-0.1-0.1-0.2-0.3-0.2-0.4
			c0-0.1,0.1-0.2,0.3-0.3c0.8-0.2,2.1-1,2.4-1.5c0.1-0.1,0.2-0.3,0.4-0.3c0.2,0,0.2,0.2,0.3,0.5c0.6,1.8,2.8,8.4,3.4,10.2
			c0.7,2.3,2.6,7.7,3,8.5c0.5,1,1.3,1.3,2,1.3h1c0.2,0,0.2,0.1,0.2,0.2v0.7c0,0.1-0.1,0.2-0.3,0.2c-0.5,0-1.1-0.1-3.5-0.1
			c-2.4,0-3.4,0.1-4.1,0.1c-0.1,0-0.2-0.1-0.2-0.3v-0.7c0-0.2,0.1-0.2,0.3-0.2h0.7c0.8,0,1.1-0.3,0.9-1.1c-0.2-1-1.4-4.8-1.8-5.9
			H83.2z M90,396.6c-0.3-0.9-2.6-8.2-2.8-8.6c-0.1-0.2-0.1-0.4-0.2-0.4c-0.1,0-0.2,0.2-0.3,0.4c-0.1,0.4-2.9,7.8-3.1,8.6H90z"/>
		<path class="st3" d="M108.8,397.2c0-1-0.2-1.5-1.6-1.7c-0.2,0-0.3-0.1-0.3-0.2V395c0-0.1,0.1-0.1,0.2-0.2c0.9-0.3,2-0.8,3.1-1.4
			c0.2-0.1,0.4-0.2,0.6-0.2c0.1,0,0.2,0.1,0.1,0.3c-0.1,0.5-0.1,2.3-0.1,4.7v3.2c0,1.1,0,2.2,0,2.5c0.1,0.6,0.1,0.8,0.5,0.8h1.3
			c0.2,0,0.3,0.1,0.3,0.3v0.5c0,0.2-0.1,0.3-0.3,0.3c-0.2,0-1.6-0.1-2.8-0.1c-1.7,0-2.8,0.1-3.1,0.1c-0.1,0-0.2-0.1-0.2-0.2V405
			c0-0.2,0.1-0.2,0.3-0.2h1.4c0.3,0,0.4-0.1,0.5-0.6c0-0.9,0-1.8,0-2.6V397.2z M107.5,388.4c0-0.7,0.6-1.5,1.8-1.5
			c1,0,1.5,0.8,1.5,1.4c0,0.8-0.5,1.6-1.7,1.6C108.5,389.9,107.5,389.3,107.5,388.4z"/>
		<path class="st3" d="M131.6,388c0-1.1-0.2-1.5-1.8-1.7c-0.2,0-0.2-0.1-0.2-0.2v-0.5c0-0.1,0.1-0.2,0.2-0.2
			c1.1-0.2,2.6-0.5,3.2-0.6c0.3,0,0.5-0.1,0.7-0.1c0.1,0,0.2,0.2,0.1,0.5c-0.1,1.5-0.1,5.7-0.1,9.4v6.4c0,1.1,0.1,2.4,0.3,2.6
			c0.3,0.3,0.9,0.5,1.3,0.5c0.4,0,0.5,0.1,0.6,0.2l0.1,0.2c0,0.2,0,0.3-0.2,0.3l-3.3,1.1c-0.2,0.1-0.3,0-0.4-0.2l-0.4-1.3
			c-0.9,0.9-2.8,1.6-4.3,1.6c-1,0-2.1,0.1-3.4-1.3c-1.5-1.5-1.8-2.8-1.8-4.7c0-1.8,0.7-3.6,2-4.9c1.1-1.2,2.7-1.8,4.3-1.8
			c1.2,0,2.2,0.2,3.1,0.4V388z M131.6,397.2c0-0.4,0-1-0.3-1.4c-0.4-0.8-1.3-1.6-3.1-1.6c-0.9,0-1.9,0.3-2.6,1
			c-1.1,1.2-1.3,2.8-1.3,3.9c0,3.3,2.3,5.7,4,5.7c1.6,0,2.9-0.8,3.2-1.6c0.1-0.4,0.2-0.7,0.2-1V397.2z"/>
	</g>
</g>
</svg>
